<?xml version="1.0" encoding="UTF-8"?>
<!DOCTYPE svg PUBLIC "-//W3C//DTD SVG 1.1//EN" "http://www.w3.org/Graphics/SVG/1.1/DTD/svg11.dtd">
<svg xmlns="http://www.w3.org/2000/svg" version="1.1" width="600px" height="600px" style="shape-rendering:geometricPrecision; text-rendering:geometricPrecision; image-rendering:optimizeQuality; fill-rule:evenodd; clip-rule:evenodd" xmlns:xlink="http://www.w3.org/1999/xlink">
<g><path style="opacity:0.999" fill="#853030" d="M 358.5,168.5 C 358.973,169.906 359.973,170.573 361.5,170.5C 362.167,170.5 362.5,170.833 362.5,171.5C 363.262,173.262 364.596,174.262 366.5,174.5C 367.167,174.5 367.5,174.833 367.5,175.5C 371.5,179.833 375.5,184.167 379.5,188.5C 396.833,207.548 409.166,229.548 416.5,254.5C 419.783,265.917 421.783,277.584 422.5,289.5C 425.051,346.899 404.718,394.232 361.5,431.5C 314.859,466.943 263.192,476.777 206.5,461C 139.113,436.937 100.279,389.437 90,318.5C 85.715,261.774 104.215,214.108 145.5,175.5C 189.918,138.564 240.585,126.398 297.5,139C 319.78,145.142 340.113,154.975 358.5,168.5 Z"/></g>
<g><path style="opacity:0.004" fill="#000000" d="M 358.5,168.5 C 360.027,168.427 361.027,169.094 361.5,170.5C 359.973,170.573 358.973,169.906 358.5,168.5 Z"/></g>
<g><path style="opacity:0.004" fill="#000000" d="M 362.5,171.5 C 364.404,171.738 365.738,172.738 366.5,174.5C 364.596,174.262 363.262,173.262 362.5,171.5 Z"/></g>
<g><path style="opacity:0.097" fill="#000000" d="M 145.5,175.5 C 104.215,214.108 85.715,261.774 90,318.5C 100.279,389.437 139.113,436.937 206.5,461C 263.192,476.777 314.859,466.943 361.5,431.5C 366.167,431.5 370.833,431.5 375.5,431.5C 379.833,431.5 384.167,431.5 388.5,431.5C 385.749,435.757 382.416,439.59 378.5,443C 325.879,488.529 265.879,501.529 198.5,482C 135.37,457.199 96.2038,411.699 81,345.5C 71.5121,277.861 92.0121,221.361 142.5,176C 143.448,175.517 144.448,175.351 145.5,175.5 Z"/></g>
<g><path style="opacity:0.004" fill="#000000" d="M 367.5,175.5 C 372.801,179.466 377.801,183.8 382.5,188.5C 381.5,188.5 380.5,188.5 379.5,188.5C 375.5,184.167 371.5,179.833 367.5,175.5 Z"/></g>
<g><path style="opacity:1" fill="#c9a585" d="M 379.5,188.5 C 380.5,188.5 381.5,188.5 382.5,188.5C 424.833,188.5 467.167,188.5 509.5,188.5C 509.5,210.5 509.5,232.5 509.5,254.5C 478.5,254.5 447.5,254.5 416.5,254.5C 409.166,229.548 396.833,207.548 379.5,188.5 Z"/></g>
<g><path style="opacity:1" fill="#314052" d="M 416.5,254.5 C 447.5,254.5 478.5,254.5 509.5,254.5C 509.5,313.5 509.5,372.5 509.5,431.5C 469.167,431.5 428.833,431.5 388.5,431.5C 384.167,431.5 379.833,431.5 375.5,431.5C 384.82,419.654 393.654,407.32 402,394.5C 420.975,361.795 427.808,326.795 422.5,289.5C 421.783,277.584 419.783,265.917 416.5,254.5 Z"/></g>
<g><path style="opacity:1" fill="#2d3542" d="M 422.5,289.5 C 427.808,326.795 420.975,361.795 402,394.5C 393.654,407.32 384.82,419.654 375.5,431.5C 370.833,431.5 366.167,431.5 361.5,431.5C 404.718,394.232 425.051,346.899 422.5,289.5 Z"/></g>
</svg>
